
	<svg xmlns="http://www.w3.org/2000/svg" xmlns:xlink="http://www.w3.org/1999/xlink" version="1.1"  viewBox="0 0 100 100">




            <g transform="
                    translate(50 50)
                    translate(0 0)  scale(1)  
                    translate(-50 -50)
                    ">


                <g transform="scale(0.4094634951073186) translate(-24.800006866455078 -28.144012451171875)" id="picture">
    <path fill="#999" d="M123.937 40.662c-2.967 4.606-8.979 6.193-13.523 3.952-7.581-4.499-17.376-4.398-24.864.255S72.875 57.965 72.968 67.116c.055 5.339-4.419 9.96-9.693 10.015-9.041.092-17.282 4.753-21.717 13.188-4.443 7.673-4.341 17.587.258 25.167 3.06 4.544.862 10.669-3.627 13.765-7.488 4.653-11.922 13.089-11.829 22.24s4.7 17.494 12.282 21.992c4.552 3.004 6.121 9.09 3.908 13.689-4.443 7.672-4.342 17.586.257 25.166s12.941 12.833 21.983 12.74c5.274-.053 9.841 4.476 9.896 9.814.094 9.152 5.453 17.486 13.035 21.985s17.376 4.398 24.863-.255c4.49-3.097 10.54-.87 13.601 3.674 4.599 7.58 12.934 12.07 21.975 11.978s17.282-4.754 21.725-12.426c2.967-4.607 8.979-6.194 13.523-3.952 7.58 4.498 17.376 4.398 24.863-.255s12.676-13.096 12.582-22.248c-.054-5.338 4.42-9.96 9.694-10.014 9.04-.093 17.282-4.753 21.717-13.189 4.442-7.672 4.34-17.586-.258-25.166-3.06-4.545-.863-10.669 3.627-13.766 7.487-4.653 11.922-13.088 11.828-22.24s-4.7-17.493-12.281-21.992c-4.552-3.004-6.121-9.09-3.908-13.688 4.443-7.673 4.341-17.587-.257-25.167s-12.942-12.833-21.983-12.74c-5.274.054-9.842-4.475-9.896-9.814-.094-9.151-4.7-17.494-13.035-21.984-7.581-4.499-17.376-4.398-24.864.255-4.489 3.097-10.54.87-13.6-3.674-4.6-7.58-12.934-12.07-21.975-11.978s-17.283 4.753-21.725 12.426zm30.977 8.072c6.906 12.132 22.014 15.79 33.998 8.804 2.999-1.557 6.766-1.595 9.795-.1s5.329 5.283 5.36 8.334c.14 13.727 11.56 25.05 25.121 24.911 3.767-.038 6.805 2.219 8.343 5.254 1.538 3.035 1.577 6.848.101 9.914-6.656 12.271-2.733 27.485 9.393 34.225 3.79 2.249 5.328 5.284 5.368 9.097s-1.437 6.88-5.18 9.206c-8.242 4.66-11.923 13.088-11.83 22.24.047 4.575.84 8.38 3.14 12.17 1.537 3.035 1.576 6.848.1 9.914s-4.465 5.385-8.233 5.424c-13.562.139-24.746 11.694-24.606 25.421.04 3.813-2.19 6.887-5.188 8.443-2.998 1.556-6.765 1.595-9.794.1-12.126-6.74-27.156-2.772-33.812 9.5-2.22 3.836-5.219 5.392-8.986 5.43s-6.797-1.455-9.096-5.245c-6.906-12.133-22.014-15.791-33.999-8.804-2.99 2.319-6.757 2.357-9.794.1-3.03-1.494-5.321-4.521-5.36-8.334-.14-13.727-11.56-25.05-25.122-24.912-3.767.039-6.804-2.218-8.342-5.253-1.538-3.035-1.577-6.848-.101-9.914 6.656-12.271 2.732-27.485-9.393-34.225-6.067-3.751-6.168-13.666-.18-17.54 11.985-6.988 15.596-22.279 8.69-34.411-1.538-3.035-1.577-6.848-.101-9.914s5.22-5.392 8.233-5.423c13.562-.14 24.747-11.695 24.606-25.422-.039-3.813 2.19-6.886 5.188-8.443s6.766-1.594 9.795-.1c12.125 6.74 27.155 2.772 33.811-9.5 1.476-3.065 5.22-5.392 8.987-5.43 3.76-.801 6.788.693 9.088 4.483z"/>
    <path fill="#999" d="M73.228 192.912c-4.332-1.303-7.147-2.607-8.88-3.693-1.516-1.303-2.383-2.823-2.383-4.778 0-1.52.433-3.476 1.3-6.082.866-2.607 1.95-5.648 3.465-9.123 1.516-3.476 3.466-7.386 5.632-11.73a306.014 306.014 0 0 1 7.364-13.901h-10.83c.433-1.304 1.95-2.607 4.549-3.476 2.599-1.086 5.848-1.738 9.963-2.606 3.465-5.865 7.147-11.295 11.046-16.726s8.014-10.209 11.912-14.553c3.899-4.344 8.014-8.254 11.913-11.73 3.898-3.258 7.797-6.082 11.479-8.036 0-.652.217-1.087.217-1.521v-.869c1.3 0 2.815.217 4.981.869s4.115 1.303 6.065 2.172c1.949.869 3.682 1.738 5.414 2.824s2.383 1.738 2.6 2.39c-3.033 5.212-5.848 12.815-8.664 23.241-2.816 10.21-5.198 22.59-7.148 36.926-.433 3.476-.866 7.603-1.083 12.164-.216 4.562-.433 9.558-.433 15.205v6.082c0 1.955 0 4.127.217 6.516-.217 0-.433.218-.433.218h-1.083c-1.3 0-2.6-.218-4.332-.652-1.733-.434-3.249-.869-4.765-1.52s-2.816-1.304-3.899-1.955c-1.083-.652-1.732-1.304-2.166-1.738 0-1.086-.216-2.172-.216-3.258v-3.476c0-5.43.216-11.078.65-16.508.433-5.647 1.083-11.512 2.166-17.377-1.3-.869-2.816-1.303-4.982-1.303H89.256c-2.166 3.91-4.116 7.82-6.065 11.73-1.95 3.91-3.465 7.819-4.765 11.729-1.516 4.127-2.816 8.471-3.682 12.598-.65 4.344-1.083 8.254-1.516 11.947zm51.548-80.369c.434-1.303.867-3.04 1.3-5.213.433-2.172.866-4.561 1.3-6.95-2.166.868-4.766 2.171-7.365 4.343s-5.414 4.78-8.447 8.037c-2.815 3.258-5.848 6.734-8.88 10.644-3.032 3.91-5.848 8.254-8.663 12.598 7.364-.652 16.027-1.086 25.557-1.086.65-3.693 1.516-7.602 2.383-11.295.866-3.475 1.949-7.168 2.815-11.078zM160.466 189c-3.012-.803-5.622-2.008-7.63-3.815-2.009-1.808-3.816-4.217-5.623-6.828.803-1.606 1.606-3.614 2.61-6.024 1.004-2.61 2.21-5.622 3.615-9.237 1.406-3.614 3.213-8.032 5.22-13.253 2.009-5.22 4.418-11.245 7.029-18.072 1.807-4.418 3.213-8.032 4.217-11.044s2.008-6.024 2.811-8.835c.803-2.812 1.606-6.025 2.209-9.639.803-3.414 1.606-7.831 2.61-13.253 3.414.602 6.627 2.209 9.237 4.418a33.765 33.765 0 0 1 7.23 8.634c-.804 1.205-2.009 2.811-3.013 5.221s-2.41 5.02-4.016 8.434a1147.317 1147.317 0 0 1-4.82 10.843c-1.806 4.016-3.614 8.233-5.622 12.65-4.417 9.84-7.831 18.675-10.441 26.708-2.21 7.63-4.217 15.461-5.623 23.092zm18.474-48.594c5.02-7.43 10.04-14.458 14.86-20.683 5.02-6.225 9.638-11.647 14.056-16.265s8.634-8.032 12.249-10.643S227.133 89 229.944 89c1.004 0 2.209.402 3.414 1.205a17.332 17.332 0 0 1 3.614 3.213c1.004 1.204 2.008 2.61 2.811 4.217.803 1.405 1.004 3.012 1.004 4.417-5.02 1.607-10.04 3.815-14.86 6.426-4.818 2.61-9.437 5.622-13.855 9.237-4.417 3.413-8.634 7.229-12.65 11.446s-7.63 8.835-10.844 13.453c1.205 3.414 2.812 6.828 4.82 10.643s4.016 7.43 6.225 11.044c2.208 3.615 4.618 6.827 7.229 9.84 2.61 3.012 5.22 5.421 8.032 7.228-.402.804-1.004 1.808-2.008 2.61s-2.008 1.607-3.213 2.21c-1.205.602-2.41 1.204-3.615 1.606s-2.41.602-3.413.602c-2.21 0-4.016-1.004-5.824-3.012-1.807-2.008-3.614-5.02-5.421-9.036-1.808-4.016-3.816-9.036-5.824-15.06s-4.216-12.851-6.626-20.883z"/>
</g>


            </g>


	</svg>
